<?xml version="1.0" encoding="utf-8"?>
<!-- Generator: Adobe Illustrator 15.0.0, SVG Export Plug-In . SVG Version: 6.00 Build 0)  -->
<!DOCTYPE svg PUBLIC "-//W3C//DTD SVG 1.1//EN" "http://www.w3.org/Graphics/SVG/1.1/DTD/svg11.dtd">
<svg version="1.1" id="Layer_1" xmlns="http://www.w3.org/2000/svg" xmlns:xlink="http://www.w3.org/1999/xlink" x="0px" y="0px"
	 width="612px" height="392px" viewBox="0 0 612 392" enable-background="new 0 0 612 392" xml:space="preserve">
<g>
	<path fill="#B8D879" d="M277.091,107.629l68.589-75.201c23.191,12.487,40.553,31.251,49.164,53.125
		c6.766,1.051,13.789,3.144,17.824,5.512c0,0.005,5.658,4.652,6.771,16.569L277.091,107.629z"/>
	<path fill="#8EC641" d="M335.781,26.488c-10.902-5.125-22.609-8.881-34.961-11.052c-14.65-2.572-29.791-2.933-44.974-1.075
		c-6.341,0.776-12.64,1.963-18.787,3.493l54.567,57.048L335.781,26.488z"/>
	<path fill="#45B649" d="M260.202,93.809c5.366-0.655,10.659-1.134,15.901-1.479l8.189-9.069l-37.49-38.901
		c-30.242,8.983-56.729,26.18-74.875,48.723c-9.359,11.627-16.249,24.288-20.479,37.636c-1.176,3.713-2.069,7.462-2.805,11.228
		C166.365,119.425,208.871,100.09,260.202,93.809"/>
	<path fill="#FFFFFF" d="M278.41,13.01c-2.868,0.063-5.691,0.118-8.42,0.177c-0.143-0.006-0.283-0.006-0.422-0.006
		c-1.749,0-3.453,0.174-5.104,0.368c3.485-0.238,6.954-0.354,10.409-0.354c8.752,0,17.431,0.747,25.946,2.245
		c1.34,0.231,2.67,0.488,3.994,0.756c-0.247-0.062-0.498-0.128-0.752-0.193c-2.653-0.752-5.514-1.096-8.305-1.501
		c-2.834-0.371-5.672-0.936-8.615-1.043C284.221,13.305,281.292,13.155,278.41,13.01"/>
	<path fill="#C6E1B3" d="M274.879,13.194c-3.465,0-6.934,0.121-10.414,0.352c-0.789,0.089-1.566,0.187-2.328,0.268
		c-2.496,0.303-4.824,0.479-7.03,0.841c-8.521,1.753-14.177,3.052-14.177,3.052s5.764-0.673,14.388-1.858
		c2.099-0.236,4.491-0.3,6.946-0.468c2.223-0.118,4.557-0.334,6.969-0.334c0.269,0,0.542,0.005,0.816,0.011
		c2.695-0.011,5.493-0.026,8.314-0.037c2.823,0.187,5.689,0.381,8.543,0.581c2.869,0.042,5.75,0.56,8.583,0.888
		c2.854,0.365,5.594,0.641,8.185,1.34c2.635,0.565,5.178,1.115,7.596,1.629c2.408,0.584,4.762,0.8,6.803,1.595
		c8.279,2.687,13.836,4.361,13.836,4.361s-5.346-2.263-13.42-5.494c-1.992-0.904-4.363-1.253-6.771-1.963
		c-2.197-0.56-4.516-1.151-6.902-1.761c-1.324-0.273-2.66-0.526-4-0.765C292.309,13.943,283.631,13.194,274.879,13.194"/>
	<path fill="#FFFFFF" d="M214.873,57.633c-0.104,0.05-0.211,0.103-0.314,0.153c-3.311,1.608-6.567,3.735-10.023,5.779
		c-3.401,2.142-6.705,4.673-10.178,7.073c-3.219,2.731-6.665,5.313-9.781,8.262c-3.018,3.052-6.222,5.928-8.877,9.23
		c-1.381,1.607-2.748,3.194-4.099,4.76c-1.224,1.675-2.429,3.326-3.612,4.947c-1.147,1.637-2.381,3.155-3.398,4.812
		c-0.967,1.68-1.922,3.328-2.846,4.941c-1.377,2.208-2.502,4.429-3.504,6.571c3.713-7.325,8.295-14.376,13.688-21.084
		C183.326,78.918,198.021,66.867,214.873,57.633"/>
	<path fill="#91CB9B" d="M243.97,46.159c0,0-2.032,0.641-5.582,1.755c-1.761,0.596-3.958,1.156-6.378,2.097
		c-2.425,0.97-5.152,2.064-8.131,3.256c-2.856,1.228-5.811,2.815-9.01,4.365c-16.848,9.231-31.543,21.285-42.943,35.451
		c-5.393,6.703-9.975,13.754-13.688,21.079c-0.426,0.904-0.828,1.804-1.218,2.675c-0.662,1.464-1.302,2.865-1.899,4.195
		c-0.535,1.361-0.92,2.701-1.335,3.935c-0.809,2.47-1.517,4.623-2.103,6.399c-0.869,3.628-1.364,5.699-1.364,5.699
		s0.651-2.023,1.798-5.56c0.716-1.715,1.576-3.8,2.572-6.183c0.908-2.424,2.214-5.018,3.699-7.828
		c1.404-2.84,2.982-5.888,5.021-8.87c0.964-1.519,1.961-3.09,2.979-4.684c1.135-1.541,2.297-3.112,3.478-4.715
		c1.188-1.582,2.394-3.18,3.616-4.808c1.351-1.52,2.717-3.061,4.098-4.612c2.631-3.209,5.835-5.975,8.824-8.937
		c3.021-2.937,6.363-5.516,9.49-8.244c3.376-2.414,6.59-4.953,9.911-7.107c3.397-2.024,6.501-4.295,9.694-6.021
		c3.201-1.711,6.164-3.487,9.02-4.862c2.861-1.363,5.492-2.605,7.822-3.719c2.338-1.121,4.484-1.851,6.201-2.579
		C241.999,46.949,243.97,46.159,243.97,46.159"/>
	<path fill="#FFFFFF" d="M368.004,47.925c12.074,10.679,21.279,23.504,26.84,37.628c5,0.776,10.145,2.122,14.119,3.734
		c-0.277-0.135-0.574-0.262-0.857-0.369c-1.486-0.544-2.953-1.205-4.473-1.651c-1.523-0.437-3.033-0.933-4.572-1.313l-4.023-0.807
		c-1.107-2.531-2.186-5.074-3.342-7.569c-1.461-2.601-2.834-5.254-4.373-7.799l-2.559-3.667c-0.885-1.196-1.652-2.476-2.629-3.6
		l-2.871-3.419c-0.982-1.12-1.85-2.329-2.934-3.364l-3.143-3.155c-1.057-1.038-2.07-2.131-3.232-3.057
		C369.297,48.995,368.65,48.458,368.004,47.925"/>
	<path fill="#E9F2D8" d="M347.955,34.665l7.238,5.059c2.318,1.809,4.553,3.683,6.865,5.443c2.234,1.882,4.316,3.929,6.477,5.876
		c1.109,0.955,1.992,2.122,3.033,3.138l3.018,3.154c1.033,1.018,1.854,2.224,2.801,3.333l2.738,3.386
		c0.93,1.114,1.65,2.377,2.492,3.563l2.439,3.602c1.551,2.444,2.928,5.006,4.395,7.503c1.268,2.599,2.434,5.254,3.668,7.88
		l0.289,0.625l0.625,0.114l4.537,0.817c1.514,0.284,2.998,0.683,4.5,1.018c1.504,0.348,2.934,0.904,4.41,1.345
		c1.451,0.473,2.766,1.196,4.164,1.787c0.846,0.72,1.527,1.788,2.328,2.671c0.379,0.484,0.625,1.075,0.951,1.603l0.92,1.653
		c0.721,1.053,0.936,2.331,1.367,3.525l1.23,3.64l-0.783-3.774c-0.326-1.249-0.428-2.579-1.068-3.73l-0.793-1.787
		c-0.279-0.585-0.482-1.221-0.84-1.776c-0.785-1.077-1.379-2.234-2.445-3.209l-0.053-0.042l-0.047-0.021
		c-1.152-0.571-2.275-1.238-3.449-1.776c-3.969-1.604-9.115-2.949-14.125-3.724c-5.551-14.125-14.76-26.959-26.828-37.638
		c-1.645-1.356-3.275-2.718-4.969-3.992c-2.439-1.709-4.867-3.419-7.359-4.98L347.955,34.665z"/>
	<path fill="#FFFFFF" d="M437.979,345.279l-0.908-0.416l-0.193-1.02l0.557-1.016l1.045-0.372l0.951,0.372l0.232,1.016l-0.59,1.02
		L437.979,345.279z M436.324,363.229l-0.605,1.021l-1.078,0.373c-0.924,0-1.293-0.462-1.104-1.394l2.572-14.749l0.566-1.02
		l1.041-0.374l0.963,0.374l0.215,1.02L436.324,363.229z"/>
	<path fill="#FFFFFF" d="M346.1,345.279l-0.91-0.416l-0.193-1.02l0.557-1.016l1.047-0.372l0.951,0.372l0.23,1.016l-0.59,1.02
		L346.1,345.279z M344.443,363.229l-0.604,1.021l-1.078,0.373c-0.926,0-1.291-0.462-1.104-1.394l2.57-14.749l0.566-1.02l1.041-0.374
		l0.963,0.374l0.215,1.02L344.443,363.229z"/>
	<path fill="#FFFFFF" d="M215.447,345.279l-0.914-0.416l-0.191-1.02l0.553-1.016l1.051-0.372l0.945,0.372l0.231,1.016l-0.587,1.02
		L215.447,345.279z M213.787,363.229l-0.604,1.021l-1.076,0.373c-0.928,0-1.293-0.462-1.104-1.394l2.568-14.749l0.569-1.02
		l1.04-0.374l0.962,0.374l0.217,1.02L213.787,363.229z"/>
	<path fill="#FFFFFF" d="M113.881,347.087c0.788,0,1.514,0.158,2.181,0.467c0.667,0.307,1.217,0.726,1.657,1.252
		c0.443,0.52,0.759,1.14,0.947,1.855c0.189,0.71,0.215,1.479,0.071,2.281l-1.819,10.329l-0.572,1.015l-1.07,0.374l-0.948-0.374
		l-0.231-1.015l1.822-10.329l-0.035-1.192l-0.483-0.968l-0.856-0.662l-1.162-0.242h-1.357l-1.23,0.242l-1.067,0.662l-0.823,0.968
		l-0.447,1.192l-1.824,10.329l-0.604,1.015l-1,0.374l-0.963-0.374l-0.254-1.015l1.824-10.329l-0.036-1.192l-0.481-0.968
		l-0.859-0.662l-1.158-0.242h-1.394c-0.835,0-1.582,0.289-2.25,0.873c-0.667,0.583-1.093,1.288-1.288,2.124l-1.855,10.396
		l-0.57,1.015l-1.072,0.374l-0.925-0.374l-0.216-1.015l2.605-14.791l0.57-1.015l1.039-0.379c0.639,0,1.045,0.309,1.211,0.931
		c1.021-0.622,2.109-0.931,3.25-0.931h1.396c0.898,0,1.705,0.193,2.404,0.577c0.707,0.374,1.282,0.879,1.734,1.498
		c0.645-0.619,1.372-1.124,2.194-1.498c0.82-0.384,1.685-0.577,2.589-0.577H113.881z"/>
	<path fill="#FFFFFF" d="M130.178,345.279l-0.908-0.416l-0.192-1.02l0.547-1.016l1.057-0.372l0.946,0.372l0.23,1.016l-0.591,1.02
		L130.178,345.279z M128.521,363.229l-0.604,1.021l-1.074,0.373c-0.928,0-1.3-0.462-1.104-1.394l2.568-14.749l0.569-1.02
		l1.037-0.374l0.965,0.374l0.217,1.02L128.521,363.229z"/>
	<path fill="#FFFFFF" d="M145.449,349.878c-0.57,0-1.127,0.11-1.68,0.336c-0.549,0.227-1.042,0.526-1.483,0.895
		c-0.442,0.368-0.812,0.81-1.124,1.319c-0.305,0.51-0.51,1.057-0.602,1.624l-0.647,3.648c-0.117,0.567-0.112,1.104,0.022,1.619
		c0.131,0.515,0.356,0.962,0.672,1.335l1.18,0.914c0.463,0.221,0.986,0.341,1.556,0.341h3.03l0.932,0.374l0.215,0.983l-0.555,1.02
		l-1.054,0.374h-3.036c-0.975,0-1.863-0.179-2.66-0.537c-0.797-0.356-1.447-0.852-1.965-1.483c-0.51-0.63-0.87-1.365-1.086-2.217
		c-0.215-0.841-0.235-1.751-0.071-2.723l0.641-3.648c0.167-0.951,0.512-1.85,1.019-2.696c0.518-0.848,1.141-1.583,1.873-2.213
		c0.742-0.632,1.572-1.13,2.486-1.503c0.916-0.364,1.862-0.553,2.837-0.553h3.036l0.947,0.379l0.197,1.015l-0.576,1.003
		l-1.068,0.395H145.449z"/>
	<path fill="#FFFFFF" d="M167.053,347.087l0.926,0.379l0.184,1.015l-0.555,1.003l-1.051,0.395h-2.286l-1.181,0.211l-1.07,0.64
		c-0.717,0.643-1.14,1.357-1.287,2.146l-1.855,10.396l-0.57,1.015l-1.072,0.374l-0.895-0.374l-0.284-1.015l2.606-14.791l0.645-1.015
		l0.994-0.379l0.811,0.231l0.407,0.632c1.021-0.574,2.11-0.863,3.249-0.863H167.053z"/>
	<path fill="#FFFFFF" d="M178.55,361.904c0.569,0,1.13-0.11,1.679-0.336c0.55-0.231,1.051-0.525,1.498-0.914
		c0.451-0.373,0.844-0.82,1.162-1.335c0.322-0.515,0.538-1.052,0.662-1.619l0.639-3.648c0.193-1.119-0.048-2.104-0.71-2.965
		c-0.668-0.81-1.608-1.209-2.819-1.209c-1.1,0-2.148,0.399-3.15,1.209c-0.472,0.409-0.855,0.868-1.154,1.378
		c-0.298,0.515-0.498,1.04-0.59,1.587l-0.645,3.648c-0.118,0.567-0.111,1.104,0.016,1.619c0.135,0.515,0.361,0.962,0.686,1.335
		l1.176,0.914C177.461,361.794,177.979,361.904,178.55,361.904 M185.764,349.162c0.547,0.638,0.924,1.389,1.125,2.229
		c0.202,0.846,0.221,1.735,0.053,2.66l-0.643,3.648c-0.17,0.972-0.504,1.882-1.016,2.723c-0.516,0.852-1.146,1.587-1.896,2.217
		c-0.746,0.632-1.581,1.127-2.502,1.483c-0.914,0.358-1.851,0.537-2.8,0.537c-0.975,0-1.858-0.179-2.643-0.537
		c-0.787-0.356-1.436-0.852-1.949-1.483c-0.51-0.63-0.871-1.365-1.087-2.217c-0.216-0.841-0.237-1.751-0.067-2.723l0.64-3.648
		c0.165-0.925,0.499-1.814,0.999-2.66c0.501-0.841,1.13-1.592,1.889-2.229h-0.031c0.76-0.692,1.609-1.212,2.537-1.556
		c0.926-0.347,1.855-0.52,2.781-0.52c0.954,0,1.82,0.173,2.612,0.52C184.553,347.95,185.214,348.47,185.764,349.162"/>
	<path fill="#FFFFFF" d="M207.439,338.197l0.961,0.38l0.216,1.013l-0.57,0.984l-1.071,0.373h-3.643l-1.248,0.247l-1.105,0.684
		l-0.862,0.982l-0.462,1.193l-0.539,3.038h5.825l0.942,0.379l0.197,1.015l-0.57,0.993l-1.068,0.395h-5.82l-2.357,13.394
		l-0.538,1.015l-1.033,0.379l-0.965-0.379l-0.253-1.015l3.397-19.213c0.141-0.809,0.43-1.572,0.872-2.287
		c0.441-0.708,0.969-1.33,1.592-1.854c0.615-0.526,1.314-0.937,2.085-1.251c0.774-0.306,1.566-0.464,2.378-0.464H207.439z"/>
	<path fill="#FFFFFF" d="M232.615,347.087c0.807,0,1.543,0.158,2.195,0.467c0.652,0.307,1.201,0.726,1.643,1.252
		c0.441,0.52,0.758,1.14,0.946,1.855c0.188,0.71,0.216,1.479,0.071,2.281l-1.82,10.329l-0.594,1.015l-0.98,0.374l-0.998-0.374
		l-0.25-1.015l1.822-10.329l-0.041-1.192l-0.477-0.968l-0.857-0.662l-1.162-0.242H229.9l-1.217,0.23l-1.049,0.643l-0.822,0.961
		l-0.482,1.163l-1.859,10.396l-0.555,1.015l-1.049,0.374l-0.965-0.374l-0.252-1.015l2.609-14.791l0.608-1.015l1.066-0.379
		c0.668,0,1.058,0.299,1.178,0.894c1.051-0.595,2.146-0.894,3.284-0.894H232.615z"/>
	<path fill="#FFFFFF" d="M253.287,361.011c0.715-0.567,1.146-1.292,1.286-2.176l0.572-3.102l-0.498,0.085l-0.538,0.016h-3.643
		c-0.857,0-1.627,0.289-2.299,0.862c-0.684,0.573-1.102,1.287-1.27,2.139c-0.145,0.836,0.03,1.557,0.516,2.161
		c0.49,0.609,1.147,0.908,1.981,0.908h1.642l1.197-0.23L253.287,361.011z M255.146,347.087c0.547,0,1.075,0.11,1.593,0.321
		c0.51,0.221,0.93,0.524,1.266,0.929c0.689,0.878,0.932,1.92,0.715,3.106l-2.109,11.828l-0.533,1.015l-1.037,0.374l-0.836-0.211
		l-0.408-0.609c-1.031,0.547-2.102,0.82-3.221,0.82h-1.643c-0.807,0-1.545-0.148-2.213-0.452c-0.666-0.296-1.219-0.705-1.66-1.225
		c-0.441-0.531-0.75-1.146-0.93-1.862c-0.174-0.71-0.197-1.477-0.051-2.286c0.283-1.587,1.093-2.964,2.428-4.105
		c0.618-0.545,1.316-0.967,2.088-1.266c0.774-0.301,1.566-0.452,2.378-0.452h3.64l0.822-0.285h-0.035l0.391-0.818l0.107-0.465
		l0.018-0.64l-0.27-0.505l-0.997-0.421h-6.356l-0.945-0.395l-0.231-1.003l0.606-1.015l1.072-0.379H255.146z"/>
	<path fill="#FFFFFF" d="M275.855,347.087c0.811,0,1.541,0.158,2.199,0.467c0.65,0.307,1.197,0.726,1.639,1.252
		c0.437,0.52,0.758,1.14,0.951,1.855c0.186,0.71,0.211,1.479,0.068,2.281l-1.823,10.329l-0.589,1.015l-0.978,0.374l-1.003-0.374
		l-0.249-1.015l1.819-10.329l-0.037-1.192l-0.484-0.968l-0.851-0.662l-1.162-0.242h-2.213l-1.214,0.23l-1.057,0.643l-0.824,0.961
		l-0.48,1.163l-1.854,10.396l-0.558,1.015l-1.051,0.374l-0.967-0.374l-0.248-1.015l2.607-14.791l0.61-1.015l1.066-0.379
		c0.668,0,1.062,0.299,1.183,0.894c1.041-0.595,2.141-0.894,3.279-0.894H275.855z"/>
	<path fill="#FFFFFF" d="M296.137,349.878c-0.567,0-1.125,0.11-1.677,0.336c-0.552,0.227-1.042,0.526-1.478,0.895
		c-0.447,0.368-0.816,0.81-1.13,1.319c-0.306,0.51-0.509,1.057-0.604,1.624l-0.643,3.648c-0.121,0.567-0.115,1.104,0.021,1.619
		c0.127,0.515,0.353,0.962,0.674,1.335l1.177,0.914c0.462,0.221,0.983,0.341,1.556,0.341h3.027l0.936,0.374l0.211,0.983l-0.552,1.02
		l-1.057,0.374h-3.034c-0.977,0-1.865-0.179-2.658-0.537c-0.801-0.356-1.451-0.852-1.962-1.483c-0.515-0.63-0.876-1.365-1.093-2.217
		c-0.215-0.841-0.235-1.751-0.067-2.723l0.64-3.648c0.169-0.951,0.51-1.85,1.016-2.696c0.521-0.848,1.146-1.583,1.877-2.213
		c0.74-0.632,1.57-1.13,2.486-1.503c0.914-0.364,1.859-0.553,2.838-0.553h3.033l0.945,0.379l0.201,1.015l-0.572,1.003l-1.074,0.395
		H296.137z"/>
	<path fill="#FFFFFF" d="M317.777,354.052c0.189-1.119-0.047-2.104-0.715-2.965c-0.646-0.81-1.561-1.209-2.75-1.209
		c-1.166,0-2.211,0.399-3.143,1.209c-0.5,0.409-0.893,0.868-1.193,1.378c-0.299,0.515-0.498,1.04-0.588,1.587l-0.074,0.283h8.389
		L317.777,354.052z M314.812,347.087c1.949,0,3.49,0.693,4.605,2.075c0.551,0.638,0.926,1.389,1.129,2.229
		c0.205,0.846,0.215,1.735,0.053,2.66l-0.289,1.641l-0.582,1.02l-1.094,0.409h-9.783l-0.111,0.579
		c-0.115,0.567-0.105,1.104,0.018,1.619c0.137,0.515,0.361,0.962,0.678,1.335l1.203,0.914c0.479,0.226,0.998,0.336,1.572,0.336
		h3.676l0.906,0.379l0.201,0.988l-0.535,1.015l-1.037,0.374h-3.674c-0.977,0-1.865-0.179-2.648-0.537
		c-0.783-0.356-1.441-0.852-1.963-1.483c-0.523-0.63-0.893-1.365-1.107-2.217c-0.215-0.841-0.237-1.751-0.068-2.723l0.641-3.648
		c0.332-1.955,1.303-3.595,2.928-4.925v0.035c0.785-0.692,1.631-1.212,2.533-1.556C312.967,347.26,313.887,347.087,314.812,347.087"
		/>
	<path fill="#FFFFFF" d="M363.271,347.087c0.805,0,1.541,0.158,2.199,0.467c0.652,0.307,1.199,0.726,1.641,1.252
		c0.439,0.52,0.75,1.14,0.943,1.855c0.191,0.71,0.211,1.479,0.07,2.281l-1.818,10.329l-0.59,1.015l-0.982,0.374l-0.998-0.374
		l-0.248-1.015l1.818-10.329l-0.037-1.192l-0.477-0.968l-0.857-0.662l-1.162-0.242h-2.213l-1.219,0.23l-1.051,0.643l-0.822,0.961
		l-0.477,1.163l-1.867,10.396l-0.551,1.015l-1.053,0.374l-0.967-0.374l-0.248-1.015l2.607-14.791l0.609-1.015l1.068-0.379
		c0.668,0,1.061,0.299,1.178,0.894c1.045-0.595,2.145-0.894,3.285-0.894H363.271z"/>
	<path fill="#FFFFFF" d="M383.516,361.909l0.893,0.374l0.25,0.983l-0.586,1.015l-1.018,0.379h-1.572
		c-0.979,0-1.867-0.179-2.666-0.537c-0.793-0.356-1.455-0.852-1.982-1.483c-0.52-0.63-0.893-1.365-1.098-2.211
		c-0.215-0.847-0.246-1.762-0.074-2.733l3.176-18.105l0.604-1.013l1.072-0.38l0.916,0.38l0.23,1.013l-1.324,7.502h4.609l0.947,0.379
		l0.199,1.015l-0.578,0.993l-1.072,0.395h-4.605l-1.355,7.822c-0.121,0.572-0.115,1.114,0.021,1.624
		c0.127,0.515,0.346,0.956,0.656,1.34l1.178,0.909c0.479,0.226,1.014,0.341,1.607,0.341H383.516z"/>
	<path fill="#FFFFFF" d="M403.191,354.052c0.193-1.119-0.043-2.104-0.715-2.965c-0.641-0.81-1.557-1.209-2.744-1.209
		c-1.172,0-2.213,0.399-3.145,1.209c-0.504,0.409-0.898,0.868-1.197,1.378c-0.295,0.515-0.494,1.04-0.588,1.587l-0.074,0.283h8.395
		L403.191,354.052z M400.232,347.087c1.949,0,3.479,0.693,4.6,2.075c0.559,0.638,0.924,1.389,1.131,2.229
		c0.197,0.846,0.215,1.735,0.053,2.66l-0.291,1.641l-0.584,1.02l-1.086,0.409h-9.789l-0.104,0.579
		c-0.123,0.567-0.117,1.104,0.016,1.619c0.125,0.515,0.35,0.962,0.678,1.335l1.199,0.914c0.471,0.226,0.998,0.336,1.57,0.336h3.68
		l0.908,0.379l0.201,0.988l-0.543,1.015l-1.033,0.374h-3.68c-0.975,0-1.857-0.179-2.645-0.537c-0.783-0.356-1.438-0.852-1.957-1.483
		c-0.531-0.63-0.893-1.365-1.107-2.217c-0.217-0.841-0.242-1.751-0.082-2.723l0.648-3.648c0.336-1.955,1.311-3.595,2.928-4.925
		v0.035c0.789-0.692,1.635-1.212,2.539-1.556C398.389,347.26,399.307,347.087,400.232,347.087"/>
	<polygon fill="#FFFFFF" points="418.047,338.167 418.924,338.539 419.156,339.555 415.02,363.229 414.389,364.25 413.41,364.628 
		412.406,364.25 412.191,363.229 416.338,339.555 416.938,338.539 	"/>
	<polygon fill="#FFFFFF" points="428.795,338.167 429.674,338.539 429.904,339.555 425.758,363.229 425.131,364.25 424.154,364.628 
		423.156,364.25 422.941,363.229 427.082,339.555 427.688,338.539 	"/>
	<path fill="#FFFFFF" d="M451.326,361.904c0.578,0,1.131-0.11,1.682-0.336c0.547-0.227,1.041-0.525,1.492-0.909
		c0.453-0.378,0.836-0.825,1.152-1.335c0.305-0.52,0.52-1.057,0.635-1.624l0.646-3.648c0.096-0.567,0.074-1.114-0.072-1.624
		c-0.143-0.51-0.373-0.951-0.693-1.319l-1.178-0.895c-0.463-0.226-0.984-0.336-1.557-0.336c-1.094,0-2.166,0.409-3.211,1.252
		l0.031-0.043c-0.475,0.409-0.852,0.868-1.143,1.378c-0.283,0.515-0.471,1.04-0.566,1.587L447.9,357.7
		c-0.217,1.114,0,2.103,0.645,2.959C449.307,361.495,450.234,361.904,451.326,361.904 M458.076,363.623
		c-0.162,0.974-0.512,1.878-1.031,2.714c-0.531,0.836-1.172,1.565-1.93,2.198c-0.762,0.63-1.602,1.124-2.523,1.476
		c-0.908,0.362-1.844,0.542-2.801,0.542h-4.254l-0.893-0.379l-0.246-0.979l0.609-1.015l1.035-0.378h4.254
		c0.566,0,1.129-0.11,1.67-0.324c0.553-0.211,1.053-0.512,1.51-0.896c0.445-0.377,0.83-0.819,1.135-1.335
		c0.311-0.51,0.525-1.053,0.646-1.625l0.037-0.32c-1.289,0.905-2.76,1.357-4.432,1.357c-0.932,0-1.793-0.179-2.588-0.537
		c-0.797-0.356-1.449-0.852-1.943-1.503l-0.035,0.042c-0.553-0.647-0.928-1.397-1.125-2.271c-0.207-0.867-0.221-1.767-0.053-2.691
		l0.635-3.648c0.168-0.925,0.504-1.814,1.004-2.66c0.498-0.841,1.143-1.587,1.926-2.229h-0.033c0.762-0.692,1.598-1.212,2.521-1.556
		c0.916-0.347,1.836-0.515,2.762-0.515c0.781,0,1.518,0.126,2.203,0.374c0.672,0.246,1.26,0.583,1.764,1.015l0.57-1.015l1.072-0.374
		l0.961,0.374l0.215,1.015L458.076,363.623z"/>
	<path fill="#FFFFFF" d="M479.182,354.052c0.188-1.119-0.049-2.104-0.721-2.965c-0.643-0.81-1.557-1.209-2.744-1.209
		c-1.166,0-2.213,0.399-3.145,1.209c-0.498,0.409-0.898,0.868-1.191,1.378c-0.301,0.515-0.494,1.04-0.596,1.587l-0.068,0.283h8.391
		L479.182,354.052z M476.217,347.087c1.949,0,3.484,0.693,4.604,2.075c0.551,0.638,0.926,1.389,1.131,2.229
		c0.199,0.846,0.215,1.735,0.047,2.66l-0.285,1.641l-0.588,1.02l-1.088,0.409h-9.783l-0.111,0.579
		c-0.115,0.567-0.109,1.104,0.02,1.619s0.355,0.962,0.676,1.335l1.205,0.914c0.473,0.226,0.998,0.336,1.57,0.336h3.676l0.908,0.379
		l0.201,0.988l-0.537,1.015l-1.043,0.374h-3.674c-0.977,0-1.859-0.179-2.643-0.537c-0.787-0.356-1.441-0.852-1.961-1.483
		c-0.525-0.63-0.893-1.365-1.107-2.217c-0.217-0.841-0.244-1.751-0.076-2.723l0.648-3.648c0.33-1.955,1.303-3.595,2.928-4.925v0.035
		c0.783-0.692,1.629-1.212,2.533-1.556C474.369,347.26,475.291,347.087,476.217,347.087"/>
	<path fill="#FFFFFF" d="M498.641,347.087c0.809,0,1.545,0.158,2.197,0.467c0.65,0.307,1.199,0.726,1.641,1.252
		c0.441,0.52,0.76,1.14,0.951,1.855c0.184,0.71,0.215,1.479,0.068,2.281l-1.82,10.329l-0.592,1.015l-0.979,0.374l-1.004-0.374
		l-0.248-1.015l1.818-10.329l-0.035-1.192l-0.479-0.968l-0.857-0.662l-1.16-0.242h-2.215l-1.215,0.23l-1.051,0.643l-0.824,0.961
		l-0.479,1.163l-1.863,10.396l-0.551,1.015l-1.051,0.374l-0.963-0.374l-0.256-1.015l2.613-14.791l0.609-1.015l1.066-0.379
		c0.662,0,1.057,0.299,1.178,0.894c1.045-0.595,2.139-0.894,3.279-0.894H498.641z"/>
	<path fill="#FFFFFF" d="M518.924,349.878c-0.566,0-1.123,0.11-1.68,0.336c-0.549,0.227-1.037,0.526-1.477,0.895
		c-0.441,0.368-0.816,0.81-1.133,1.319c-0.299,0.51-0.504,1.057-0.604,1.624l-0.641,3.648c-0.115,0.567-0.111,1.104,0.021,1.619
		c0.131,0.515,0.357,0.962,0.678,1.335l1.178,0.914c0.457,0.221,0.971,0.341,1.557,0.341h3.027l0.936,0.374l0.211,0.983l-0.553,1.02
		l-1.057,0.374h-3.033c-0.979,0-1.859-0.179-2.66-0.537c-0.799-0.356-1.447-0.852-1.967-1.483c-0.514-0.63-0.877-1.365-1.088-2.217
		c-0.215-0.841-0.236-1.751-0.072-2.723l0.646-3.648c0.162-0.951,0.51-1.85,1.01-2.696c0.52-0.848,1.135-1.583,1.881-2.213
		c0.736-0.632,1.566-1.13,2.486-1.503c0.91-0.364,1.861-0.553,2.832-0.553h3.039l0.941,0.379l0.205,1.015l-0.572,1.003l-1.078,0.395
		H518.924z"/>
	<path fill="#FFFFFF" d="M540.561,354.052c0.197-1.119-0.041-2.104-0.715-2.965c-0.641-0.81-1.557-1.209-2.748-1.209
		c-1.166,0-2.213,0.399-3.145,1.209c-0.498,0.409-0.898,0.868-1.193,1.378c-0.293,0.515-0.492,1.04-0.594,1.587l-0.068,0.283h8.391
		L540.561,354.052z M537.602,347.087c1.945,0,3.486,0.693,4.602,2.075c0.557,0.638,0.924,1.389,1.129,2.229
		c0.199,0.846,0.217,1.735,0.053,2.66l-0.289,1.641l-0.59,1.02l-1.082,0.409h-9.787l-0.111,0.579
		c-0.115,0.567-0.109,1.104,0.021,1.619s0.357,0.962,0.678,1.335l1.199,0.914c0.477,0.226,0.998,0.336,1.57,0.336h3.674l0.912,0.379
		l0.199,0.988l-0.537,1.015l-1.041,0.374h-3.674c-0.973,0-1.855-0.179-2.645-0.537c-0.779-0.356-1.436-0.852-1.961-1.483
		c-0.525-0.63-0.893-1.365-1.109-2.217c-0.215-0.841-0.236-1.751-0.066-2.723l0.639-3.648c0.332-1.955,1.311-3.595,2.93-4.925v0.035
		c0.787-0.692,1.629-1.212,2.533-1.556C535.752,347.26,536.672,347.087,537.602,347.087"/>
	<path fill="#FFFFFF" d="M455.652,214.059c-0.494,0.021-0.799,0.031-0.799,0.031s-3.738,27.335-5.498,39.761
		c-1.248,8.769-2.486,17.546-3.707,26.342c-7.406,4.399-14.766,6.623-21.861,6.628l-1.309-0.031
		c-1.699-0.101-4.783-0.605-6.461-2.87c-2.359-3.028-2.377-7.145-1.967-10.061c0.988-7.17,2.008-14.325,3.035-21.483
		c1.691-11.854,5.254-38.316,5.254-38.316l-26.15-0.074L388,272.054c-1.244,7.245-1.082,13.337,0.504,18.599
		c3.027,10.293,11.887,18.3,21.969,19.918c2.213,0.44,4.529,0.661,6.873,0.661c8.785,0,17.223-3.038,24.887-6.207l-0.541,4.025
		h25.047l1.123-0.011l13.322-94.98H455.652z"/>
	<path fill="#FFFFFF" d="M195.625,214.059c-0.496,0.021-0.792,0.031-0.792,0.031s-3.741,27.335-5.5,39.761
		c-1.251,8.769-2.493,17.546-3.712,26.342c-7.406,4.399-14.756,6.623-21.861,6.628l-1.309-0.031c-1.695-0.101-4.781-0.605-6.46-2.87
		c-2.358-3.028-2.368-7.145-1.964-10.061c0.985-7.17,2.014-14.325,3.03-21.483c1.696-11.854,5.265-38.316,5.265-38.316
		l-26.162-0.074l-8.188,58.069c-1.243,7.245-1.075,13.337,0.514,18.599c3.025,10.293,11.879,18.3,21.96,19.918
		c2.219,0.44,4.527,0.661,6.874,0.661c8.783,0,17.226-3.038,24.885-6.207l-0.543,4.025h25.057l1.119-0.011l13.314-94.98H195.625z"/>
	<path fill="#FFFFFF" d="M317.352,222.08c-4.846-6.033-12.942-9.83-21.621-10.139c-9.723-0.51-18.796,2.838-27.512,6.406
		c0.09-0.735,0.168-1.465,0.246-2.186l0.211-2.072h-23.223l-0.668,0.042l-1.599-0.042l-3.093,21.942
		c-3.257,23.097-10.504,73.018-10.504,73.018h26.391l0.256-1.72c1.595-10.849,3.141-21.719,4.697-32.601
		c1.503-10.559,3.012-20.974,4.562-31.518c6.986-4.359,14.45-6.507,21.636-6.507h0.384c2.244,0,5.303,0.272,7.17,2.291
		c2.733,2.996,2.681,7.469,2.402,9.878c-1.114,8.445-2.371,17.004-3.596,25.319c-1.566,10.702-3.181,21.73-4.516,32.617
		l-0.278,2.239h26.271c0.381-2.759,3.459-25.047,4.928-35.307c1.256-8.769,2.508-17.538,3.721-26.338
		C324.91,237.65,322.619,228.409,317.352,222.08"/>
	<path fill="#FFFFFF" d="M351.576,201.391h26.363c0.594-3.507,3.422-22.306,3.422-22.306l-26.668,0.025L351.576,201.391z"/>
	<path fill="#FFFFFF" d="M349.857,214.084c0,0-13.492,94.287-13.594,94.961h26.395l13.615-94.961H349.857z"/>
	<path fill="#FFFFFF" d="M96.985,213.984c-1.464,2.938-20.606,41.401-28.212,56.168c-1.971-6.829-13.796-48.082-16.111-56.168
		H24.479c1.377,4.657,22.446,75.128,27.021,90.473c-1.686,3.383-3.758,7.595-4.221,8.562c-2.169,4.562-4.219,8.873-7.992,11.322
		c-3.945,2.166-8.501,2.344-12.832,2.344l-4.381-0.02c-0.738,0-1.477,0.005-2.213,0.02l-2.148,0.062l-0.301,2.125
		c-0.298,2.124-0.588,4.242-0.879,6.36c-0.564,4.174-1.135,8.337-1.781,12.507l-0.441,2.89l2.922,0.036
		c1.525,0.021,3.07,0.043,4.626,0.043c12.077,0,24.587-1.082,34.243-8.937c7.182-5.688,11.111-13.637,14.906-21.311
		c0.786-1.587,1.561-3.153,2.383-4.742c8.086-16.305,16.262-32.538,24.434-48.771c7.109-14.133,22.579-45.121,26.493-52.965H96.985z
		"/>
	<path fill="#FFFFFF" d="M583.07,220.066l2.193,0.012c0.936-0.005,1.613,0.199,2.07,0.608c0.463,0.409,0.678,1.036,0.678,1.851
		c0.021,0.94-0.309,1.746-0.939,2.276c-0.631,0.558-1.473,0.847-2.555,0.852l-1.451,0.007L583.07,220.066z M583.076,226.854
		l1.588-0.022c0.816,0.053,1.467,0.274,1.877,0.801c0.479,0.499,0.768,1.346,0.961,2.449l0.658,3.579l1.535,0.01l-0.877-4.431
		c-0.176-0.877-0.438-1.529-0.797-2.019c-0.346-0.436-0.883-0.721-1.58-0.914c1.047-0.356,1.812-0.873,2.312-1.524
		c0.484-0.679,0.736-1.473,0.746-2.365c0.006-1.245-0.41-2.151-1.176-2.756c-0.779-0.588-1.836-0.852-3.113-0.852l-3.523-0.029
		l-0.01,14.865h1.398V226.854z"/>
	<path fill="#FFFFFF" d="M586,215.71c5.787,0.174,10.355,5.046,10.148,10.848c-0.182,5.825-5.033,10.367-10.807,10.21
		c-5.777-0.201-10.312-5.09-10.129-10.893C575.396,220.093,580.254,215.489,586,215.71 M585.301,238.28
		c6.582,0.231,12.158-5.046,12.385-11.689c0.193-6.645-5.029-12.223-11.617-12.386c-6.613-0.257-12.201,4.974-12.402,11.633
		C573.463,232.473,578.666,238.05,585.301,238.28"/>
	<path fill="#FFFFFF" d="M557.461,219.236l0.217-1.634l-1.562-0.542c-8.52-2.934-17.293-4.663-26.072-5.114
		c-0.84-0.053-1.688-0.075-2.523-0.075c-10.539,0-20.344,3.397-27.596,9.566c-6.309,5.273-9.811,13.932-9.385,23.141
		c0.352,8.673,3.891,15.713,9.746,19.349c6.004,3.507,12.568,5.903,18.93,8.228c1.271,0.462,2.549,0.931,3.801,1.397l0.309,0.115
		c1.836,0.706,3.602,1.378,5.1,2.367c2.949,1.945,3.637,4.593,1.199,7.406c-2.986,3.301-8.027,3.928-12.471,4.264
		c-5.76,0.304-11.594-0.253-17.113-1.525c0,0-10.439-1.845-14.744-2.911c-0.648,5.034-2.35,18.303-2.592,21.142l-0.143,1.618
		l1.557,0.479c9.982,3.091,19.002,4.589,27.592,4.589c3.07,0,6.102-0.2,9.016-0.594c10.139-1.371,18.965-4.931,25.545-10.298
		c7.654-6.428,11.57-17.468,10.471-29.543c-0.625-6.906-4.32-13.072-9.902-16.493c-5.209-3.145-10.893-5.194-16.379-7.181
		c-1.736-0.627-3.471-1.252-5.225-1.925l-0.936-0.336c-1.783-0.631-3.607-1.272-5.205-2.182c-1.088-0.614-2.592-1.351-3.027-2.617
		c-0.594-1.719,1.508-2.834,2.807-3.349c1.709-0.689,3.711-0.926,5.635-1.099c5.289-0.354,10.467,0.025,15.449,1.056
		c0,0,9.525,2.094,14.535,4.722c0.262-2.02,1.312-10.071,1.693-12.752C556.615,225.423,557.053,222.343,557.461,219.236"/>
</g>
</svg>
